HIERARCHY
ROOT hips
{
  OFFSET 0 10.680822821525009 1.3929502295107734
  CHANNELS 6 Xposition Yposition Zposition Yrotation Xrotation Zrotation
  JOINT spine
  {
    OFFSET -7.042017322922631e-31 0.6058489940359625 0
    CHANNELS 3 Yrotation Xrotation Zrotation
    JOINT chest
    {
      OFFSET 0 1.2699794144455032 0
      CHANNELS 3 Yrotation Xrotation Zrotation
      JOINT upperChest
      {
        OFFSET 0 1.217799211677689 0
        CHANNELS 3 Yrotation Xrotation Zrotation
        JOINT neck
        {
          OFFSET 0 1.5248826104153006 0
          CHANNELS 3 Yrotation Xrotation Zrotation
          JOINT head
          {
            OFFSET 0 0.8197772727844447 0
            CHANNELS 3 Yrotation Xrotation Zrotation
            JOINT leftEye
            {
              OFFSET 0.2793952361220866 0.6769952096623495 0.1830357412467788
              CHANNELS 3 Yrotation Xrotation Zrotation
              End Site
              {
                OFFSET 0.2793952361220866 0.6769952096623495 0.1830357412467788
              }
            }
            JOINT rightEye
            {
              OFFSET -0.27939522230689573 0.676995205357064 0.18303631459760622
              CHANNELS 3 Yrotation Xrotation Zrotation
              End Site
              {
                OFFSET -0.27939522230689573 0.676995205357064 0.18303631459760622
              }
            }
          }
        }
        JOINT leftShoulder
        {
          OFFSET 0.41486978509200423 1.1670505408695453 0
          CHANNELS 3 Yrotation Xrotation Zrotation
          JOINT leftUpperArm
          {
            OFFSET 0.9737926108153417 0 0
            CHANNELS 3 Yrotation Xrotation Zrotation
            JOINT leftLowerArm
            {
              OFFSET 2.5269332222665284 0 0
              CHANNELS 3 Yrotation Xrotation Zrotation
              JOINT leftHand
              {
                OFFSET 2.4263782738425914 0 0
                CHANNELS 3 Yrotation Xrotation Zrotation
                JOINT leftIndexProximal
                {
                  OFFSET 0.724320348022514 0.08170607082582437 0.20360061616140124
                  CHANNELS 3 Yrotation Xrotation Zrotation
                  JOINT leftIndexIntermediate
                  {
                    OFFSET 0.36548960630744587 -0.010566596513783999 -0.01414783573280308
                    CHANNELS 3 Yrotation Xrotation Zrotation
                    JOINT leftIndexDistal
                    {
                      OFFSET 0.22502819650693362 -0.007863819831430696 -0.007567681939621526
                      CHANNELS 3 Yrotation Xrotation Zrotation
                      End Site
                      {
                        OFFSET 0.22502819650693362 -0.007863819831430696 -0.007567681939621526
                      }
                    }
                  }
                }
                JOINT leftLittleProximal
                {
                  OFFSET 0.6720322998298205 0.08170601055037707 -0.3230036039466837
                  CHANNELS 3 Yrotation Xrotation Zrotation
                  JOINT leftLittleIntermediate
                  {
                    OFFSET 0.34583592281688713 5.476543019078406e-8 1.3869203337180114e-7
                    CHANNELS 3 Yrotation Xrotation Zrotation
                    JOINT leftLittleDistal
                    {
                      OFFSET 0.19925728062053938 0.003098047439490381 0.0038303983709246925
                      CHANNELS 3 Yrotation Xrotation Zrotation
                      End Site
                      {
                        OFFSET 0.19925728062053938 0.003098047439490381 0.0038303983709246925
                      }
                    }
                  }
                }
                JOINT leftMiddleProximal
                {
                  OFFSET 0.7300436596551069 0.0817073395107144 0.022661722987926763
                  CHANNELS 3 Yrotation Xrotation Zrotation
                  JOINT leftMiddleIntermediate
                  {
                    OFFSET 0.40758254347686607 -0.0000012383587111308714 2.408460318820138e-7
                    CHANNELS 3 Yrotation Xrotation Zrotation
                    JOINT leftMiddleDistal
                    {
                      OFFSET 0.2514490105498507 0.0000013869132886590307 9.738618134136345e-8
                      CHANNELS 3 Yrotation Xrotation Zrotation
                      End Site
                      {
                        OFFSET 0.2514490105498507 0.0000013869132886590307 9.738618134136345e-8
                      }
                    }
                  }
                }
                JOINT leftRingProximal
                {
                  OFFSET 0.7217261161191838 0.08170601902187746 -0.15043395722184966
                  CHANNELS 3 Yrotation Xrotation Zrotation
                  JOINT leftRingIntermediate
                  {
                    OFFSET 0.37808807487521556 0.0000013754022405443322 2.2046919317952884e-7
                    CHANNELS 3 Yrotation Xrotation Zrotation
                    JOINT leftRingDistal
                    {
                      OFFSET 0.21812105442344254 -0.002713483731960231 -0.004991354517454624
                      CHANNELS 3 Yrotation Xrotation Zrotation
                      End Site
                      {
                        OFFSET 0.21812105442344254 -0.002713483731960231 -0.004991354517454624
                      }
                    }
                  }
                }
                JOINT leftThumbProximal
                {
                  OFFSET 0.10793587079521427 -0.1652791240518252 -0.07775251827190094
                  CHANNELS 3 Yrotation Xrotation Zrotation
                  JOINT leftThumbIntermediate
                  {
                    OFFSET 0.40355819082296684 -0.017484006740276614 0.3177776014416309
                    CHANNELS 3 Yrotation Xrotation Zrotation
                    JOINT leftThumbDistal
                    {
                      OFFSET 0.2318764658022603 -0.018510186824293617 0.21396001800186287
                      CHANNELS 3 Yrotation Xrotation Zrotation
                      End Site
                      {
                        OFFSET 0.2318764658022603 -0.018510186824293617 0.21396001800186287
                      }
                    }
                  }
                }
              }
            }
          }
        }
        JOINT rightShoulder
        {
          OFFSET -0.4148697850920044 1.1670505408695453 0
          CHANNELS 3 Yrotation Xrotation Zrotation
          JOINT rightUpperArm
          {
            OFFSET -0.9737926108153414 0 0
            CHANNELS 3 Yrotation Xrotation Zrotation
            JOINT rightLowerArm
            {
              OFFSET -2.5269332222665293 0 0
              CHANNELS 3 Yrotation Xrotation Zrotation
              JOINT rightHand
              {
                OFFSET -2.42637827384259 0 0
                CHANNELS 3 Yrotation Xrotation Zrotation
                JOINT rightIndexProximal
                {
                  OFFSET -0.724320348022514 0.08170607082582437 0.20360061616140124
                  CHANNELS 3 Yrotation Xrotation Zrotation
                  JOINT rightIndexIntermediate
                  {
                    OFFSET -0.36548960630744587 -0.010566596513783999 -0.01414783573280308
                    CHANNELS 3 Yrotation Xrotation Zrotation
                    JOINT rightIndexDistal
                    {
                      OFFSET -0.22502819650693362 -0.007863819831430696 -0.007567681939621526
                      CHANNELS 3 Yrotation Xrotation Zrotation
                      End Site
                      {
                        OFFSET -0.22502819650693362 -0.007863819831430696 -0.007567681939621526
                      }
                    }
                  }
                }
                JOINT rightLittleProximal
                {
                  OFFSET -0.6720322998298205 0.08170601055037707 -0.3230036039466837
                  CHANNELS 3 Yrotation Xrotation Zrotation
                  JOINT rightLittleIntermediate
                  {
                    OFFSET -0.34583592281688713 5.476543019078406e-8 1.3869203337180114e-7
                    CHANNELS 3 Yrotation Xrotation Zrotation
                    JOINT rightLittleDistal
                    {
                      OFFSET -0.19925728062053938 0.003098047439490381 0.0038303983709246925
                      CHANNELS 3 Yrotation Xrotation Zrotation
                      End Site
                      {
                        OFFSET -0.19925728062053938 0.003098047439490381 0.0038303983709246925
                      }
                    }
                  }
                }
                JOINT rightMiddleProximal
                {
                  OFFSET -0.7300436596551069 0.0817073395107144 0.022661722987926763
                  CHANNELS 3 Yrotation Xrotation Zrotation
                  JOINT rightMiddleIntermediate
                  {
                    OFFSET -0.40758254347686607 -0.0000012383587111308714 2.408460318820138e-7
                    CHANNELS 3 Yrotation Xrotation Zrotation
                    JOINT rightMiddleDistal
                    {
                      OFFSET -0.2514490105498507 0.0000013869132886590307 9.738618134136345e-8
                      CHANNELS 3 Yrotation Xrotation Zrotation
                      End Site
                      {
                        OFFSET -0.2514490105498507 0.0000013869132886590307 9.738618134136345e-8
                      }
                    }
                  }
                }
                JOINT rightRingProximal
                {
                  OFFSET -0.7217261161191838 0.08170601902187746 -0.15043395722184966
                  CHANNELS 3 Yrotation Xrotation Zrotation
                  JOINT rightRingIntermediate
                  {
                    OFFSET -0.37808807487521556 0.0000013754022405443322 2.2046919317952884e-7
                    CHANNELS 3 Yrotation Xrotation Zrotation
                    JOINT rightRingDistal
                    {
                      OFFSET -0.21812105442344254 -0.002713483731960231 -0.004991354517454624
                      CHANNELS 3 Yrotation Xrotation Zrotation
                      End Site
                      {
                        OFFSET -0.21812105442344254 -0.002713483731960231 -0.004991354517454624
                      }
                    }
                  }
                }
                JOINT rightThumbProximal
                {
                  OFFSET -0.10793587079521427 -0.1652791240518252 -0.07775251827190094
                  CHANNELS 3 Yrotation Xrotation Zrotation
                  JOINT rightThumbIntermediate
                  {
                    OFFSET -0.40355819082296684 -0.017484006740276614 0.3177776014416309
                    CHANNELS 3 Yrotation Xrotation Zrotation
                    JOINT rightThumbDistal
                    {
                      OFFSET -0.2318764658022603 -0.018510186824293617 0.21396001800186287
                      CHANNELS 3 Yrotation Xrotation Zrotation
                      End Site
                      {
                        OFFSET -0.2318764658022603 -0.018510186824293617 0.21396001800186287
                      }
                    }
                  }
                }
              }
            }
          }
        }
      }
    }
  }
  JOINT leftUpperLeg
  {
    OFFSET 0.8486251390888677 -0.4421577294694363 0
    CHANNELS 3 Yrotation Xrotation Zrotation
    JOINT leftLowerLeg
    {
      OFFSET 0 -4.10147812638609 0
      CHANNELS 3 Yrotation Xrotation Zrotation
      JOINT leftFoot
      {
        OFFSET -0.0002543926476658853 -4.77292286812444 0.007402811231737388
        CHANNELS 3 Yrotation Xrotation Zrotation
        JOINT leftToes
        {
          OFFSET 0 -0.7027875951174846 1.2062924140498823
          CHANNELS 3 Yrotation Xrotation Zrotation
          End Site
          {
            OFFSET 0 -0.7027875951174846 1.2062924140498823
          }
        }
      }
    }
  }
  JOINT rightUpperLeg
  {
    OFFSET -0.8486251390888677 -0.4421577294694363 0
    CHANNELS 3 Yrotation Xrotation Zrotation
    JOINT rightLowerLeg
    {
      OFFSET 0 -4.10147812638609 0
      CHANNELS 3 Yrotation Xrotation Zrotation
      JOINT rightFoot
      {
        OFFSET 0.0002543926476658853 -4.77292286812444 0.007402811231737388
        CHANNELS 3 Yrotation Xrotation Zrotation
        JOINT rightToes
        {
          OFFSET 0 -0.7027875951174846 1.2062924140498823
          CHANNELS 3 Yrotation Xrotation Zrotation
          End Site
          {
            OFFSET 0 -0.7027875951174846 1.2062924140498823
          }
        }
      }
    }
  }
}
MOTION
Frames: 4
Frame Time: 0.03333333333333333
-0.19981473684310913 -0.3423161229166105 0.13783681392669678 -33.74531957352821 5.203442935403686 4.566016701783022 20.514635246723827 -6.086064005314293 8.295964839530201 4.499085399885693 9.044793152562383 -22.221731174633476 0 0 0 0.6161732275193973 4.594649084465333 0.5313707803965516 2.7995853734155673 6.649667717823127 4.044917404097407 0 0 0 0 0 0 3.664344025136692 -0.48610676641525946 7.349905329328406 1.1219682534590296 -14.47236709643748 -2.894610667200435 -107.01057881450028 1.243557475761137 0.319967358610879 -49.16705450210307 10.312583136978892 14.897360461147674 4.293418676622629 1.7391710048479665 -44.08962951971553 4.293313567430972 1.7390679709415955 -44.0882426327499 2.315835136877878 0.4514168350045137 -22.05843009485798 7.229266809195528 4.549249068689157 -43.47051638123352 0.21877550913368216 1.7570952534871023 -44.54582381384136 2.3158391891162933 0.4513935689505849 -22.05843009485798 4.292184112149827 1.737975278025743 -44.07367070446369 4.294542341046204 1.740274375551454 -44.10421833712702 2.315831297915147 0.45141181892866034 -22.058420899241597 4.293418250737577 1.7391708980770761 -44.08962951971553 4.293313141545879 1.739067864170711 -44.0882426327499 2.3158349236021714 0.4514168350045137 -22.05843009485798 3.3984408621049775 -1.5324962800461706 5.916758513829379 17.419443616705074 4.4733589257442326 2.6110493757659303 6.3022174759592735 -0.16791147647165117 2.8947369157894456 1.3480963974224236 0.5769176747938566 -0.5462815746788374 39.29571166439423 -22.417197526151035 53.82191296089517 104.70475964804733 1.2181370098295734 -0.339695047116396 -3.877140229711518 22.739400619850052 33.779750618343 -1.1015608361493088 0.09812129159790804 10.179836297991786 -1.1015763079591674 0.09811366765487244 10.179833776987843 -0.5529956938310499 0.0245770440972252 5.090149230154522 -1.1015688388096003 0.0981144213780246 10.179839422574986 -1.101577374980531 0.0981214316703523 10.179825373641076 -0.5529888106009812 0.0245718647589651 5.090153482188058 -1.1015609428514463 0.09812132494849 10.179836297991786 -1.1015764146613038 0.09811367432498883 10.179833776987843 -0.5529956938310499 0.0245770440972252 5.090149230154522 -1.1015608361493088 0.09812127158755887 10.179837138326427 -1.1015764146613038 0.09811367432498883 10.179833776987843 -0.5529956938310499 0.0245770440972252 5.090149230154522 1.5158415509553218 -1.8108272895092936 -5.855691238867997 -24.11823451811816 5.444804192533019 -3.315212457873726 -7.556931515354567 -0.6128345067968124 -2.7108305696486346 3.279820915100295 -13.873392218944204 -5.304640839692451 10.306531399449618 30.680763643725236 1.622756820487358 7.336406187194082 -9.473460047892328 -1.4436405837610842 -0.0000033881200630719303 -12.348499340856804 -9.512808408268278e-8 -19.945204579038922 -25.411733916328124 7.424698237610383 10.361819135821237 43.656083396472184 -2.611685367342148 0.732641425341203 -1.082146553479941 -14.137751859965263 -0.04941989150797688 -21.519540302586673 3.0869654318515716
-0.16333454847335815 -0.4069695195230558 0.07738066464662552 -32.7767852423358 5.305917912120035 6.638319517873144 18.320910384030118 -3.921122968032127 8.610109124410284 3.835252033855119 7.633309221550723 -25.239888924940132 0 0 0 0.7720400383775203 4.383729393174053 1.0515613426014483 4.078941891993227 5.570795860682543 4.474981644274795 0 0 0 0 0 0 2.246495973807686 0.04795720502138316 4.629841005117234 4.913011665954429 -22.95692963474876 -8.363690866066202 -103.88778790759618 1.2090411062316448 0.34649631161962197 -48.53140757173014 12.891474617293236 15.884529085425456 3.951049644154585 1.4315161348252694 -39.820968255888054 3.9510669197501795 1.4315258495324823 -39.82139515296612 2.1010785001018046 0.3690158474266 -19.92185822944663 7.086767954519475 4.015939484072858 -39.21388285253966 -0.121018916809963 1.446834251075378 -40.279016410097874 2.1010836194059124 0.36900517503468055 -19.921853854973502 3.9497231555164203 1.4304114341020364 -39.804996356094655 3.952379351441152 1.4326353547710917 -39.83738850233491 2.101088738709986 0.36900202667906673 -19.92185224957559 3.9510500701597637 1.4315161348252694 -39.820968255888054 3.9510669197501795 1.431525956287507 -39.82139515296612 2.1010785001018046 0.36901582074562017 -19.92185822944663 3.7705191064462285 -1.539266149028952 5.992952392241318 17.419443616705074 4.4733589257442326 2.6110493757659303 6.3022174759592735 -0.16791147647165117 2.8947369157894456 -1.6527294671819956 0.0780039593887605 -2.635410711182903 47.36285973404402 -17.43437654237392 45.50163777512151 106.35279011676073 1.2363660571718074 -0.3256652747342289 -4.639586575350476 23.283111134913533 28.978057901931574 -1.1015608361493088 0.09812129159790804 10.179836297991786 -1.1015763079591674 0.09811366765487244 10.179833776987843 -0.5529956938310499 0.0245770440972252 5.090149230154522 -1.1015688388096003 0.0981144213780246 10.179839422574986 -1.101577374980531 0.0981214316703523 10.179825373641076 -0.5529888106009812 0.0245718647589651 5.090153482188058 -1.1015609428514463 0.09812132494849 10.179836297991786 -1.1015764146613038 0.09811367432498883 10.179833776987843 -0.5529956938310499 0.0245770440972252 5.090149230154522 -1.1015608361493088 0.09812127158755887 10.179837138326427 -1.1015764146613038 0.09811367432498883 10.179833776987843 -0.5529956938310499 0.0245770440972252 5.090149230154522 4.13982558937447 -1.811118785360564 -5.568824747399287 -20.73247954378915 5.31645732035138 -2.7490131760915224 -5.878923600241298 -0.7504485244543285 -2.5694892507652716 5.180056888059372 -13.492779006176177 -6.805819729751095 10.053560402428943 30.14037445651341 -0.39142344863045314 6.914450711068673 -12.050054265369672 -0.005019467179768328 -0.000005861781521156109 -9.461440835799829 -0.0000014896986806930165 -17.247984844702174 -32.38683983923785 4.102781706087786 11.694518265293063 52.6913479322313 -0.3815002739884073 0.3939432628798678 1.1848367846264432 -13.543617326856088 -0.04824934205915621 -16.556142403325936 3.1331994125532985
-0.14754867553710938 -0.4434761723550871 0.04789956286549568 -31.16435334659846 5.091559720490505 7.544038314120166 16.710399983526326 -2.786004916909833 8.575302002218965 3.4618483028261173 6.705202055491819 -26.328682157680245 0 0 0 0.7423570088225245 4.386445514118132 1.4885200345659795 4.368837817080642 5.1531973352993745 4.725709635569313 0 0 0 0 0 0 1.2570094698070744 0.37876625680449144 3.034783026637691 5.936090359475819 -27.178383971255748 -11.716526489974951 -102.08929115696782 1.188535164784972 0.3608662990941314 -48.544900223944786 13.896553122305747 16.256838623671797 3.707594514969209 1.2387267583405313 -36.940631926474374 3.7076345833901887 1.2387952896923113 -36.94131510454322 1.9544393295907876 0.31795592910559783 -18.47985104541476 6.968444867901371 3.662774727910688 -36.34311296589007 -0.36289590425872614 1.2521297952998667 -37.398936756231194 1.9544389029457343 0.3179516601716355 -18.47985860600941 3.706223949663129 1.2376992152629138 -36.9246489310575 3.7090140977451878 1.2398173891134645 -36.9573049487748 1.9544363430754081 0.31796566761120615 -18.479847806368998 3.707594514969209 1.2387268650871839 -36.940631926474374 3.7076345833901887 1.2387952896923113 -36.94131510454322 1.9544391162682615 0.31795592910559783 -18.47985104541476 3.770526350427622 -1.5392621989004398 5.992959612260909 17.419443616705074 4.4733589257442326 2.6110493757659303 6.3022174759592735 -0.16791147647165117 2.8947369157894456 -3.285293357425622 -0.18218642505253443 -3.0055235720316564 49.12064285385935 -13.585150981295953 42.00108391604763 107.28343447954917 1.246433450893787 -0.3175255601368427 -5.2901159912350835 23.58487868208417 25.135072344902866 -1.1015608361493088 0.09812129159790804 10.179836297991786 -1.1015763079591674 0.09811366765487244 10.179833776987843 -0.5529956938310499 0.0245770440972252 5.090149230154522 -1.1015688388096003 0.0981144213780246 10.179839422574986 -1.101577374980531 0.0981214316703523 10.179825373641076 -0.5529888106009812 0.0245718647589651 5.090153482188058 -1.1015609428514463 0.09812132494849 10.179836297991786 -1.1015764146613038 0.09811367432498883 10.179833776987843 -0.5529956938310499 0.0245770440972252 5.090149230154522 -1.1015608361493088 0.09812127158755887 10.179837138326427 -1.1015764146613038 0.09811367432498883 10.179833776987843 -0.5529956938310499 0.0245770440972252 5.090149230154522 5.39799800158906 -1.8159033814801435 -5.431336045822998 -19.349073469861402 5.254444467269626 -2.5199699158103566 -5.19305315431114 -0.8078767313754495 -2.512863252939044 5.625797911393202 -13.416440555249752 -7.431274125734034 9.997781563008543 30.363790398576597 -0.857666831696761 5.737312942338986 -13.239913410859907 0.5836819434485017 -0.0000025463003568731704 -8.23484447786351 -6.769305528140397e-7 -15.910144589137051 -35.58777108123268 1.6352788364393642 9.014763086730804 56.356514318944804 -2.2246047333134507 0.4371068804456846 1.0345950936799269 -14.695094001275171 -0.04130005867590129 -13.968194665825425 2.9587789611730413
-0.13124382495880127 -0.5223641118082121 0.0043173618614673615 -26.068281768166166 4.600111601302622 8.743608673500761 12.80064311323594 -1.6719627936415367 8.097769138584672 2.4821549649977697 5.25990855161492 -27.40299277179105 0 0 0 0.4824082144298293 4.404472604628352 2.6034675860296366 4.235582799765346 5.219474774211707 5.459867476719753 0 0 0 0 0 0 -0.795798902733046 1.011173950943365 -0.4662216162394013 6.562284279067973 -36.24348851753397 -20.548801541989487 -97.91911127449809 1.1392543589513249 0.39174630695131757 -50.23315181044928 14.04778272792923 14.375366061672723 3.1173220346083146 0.8459273563745584 -30.358725855547203 3.11732797541566 0.8459089982403714 -30.359033411624736 1.6150071686919454 0.21526184219201178 -15.184961974075579 6.632956095248217 2.8812879522986723 -29.786355785728922 -0.9500479311702216 0.8545676966157374 -30.81671696007218 1.6150087688929415 0.2152594542769921 -15.184952839831771 3.115828588009635 0.8450490478309961 -30.34275117176456 3.118824406778305 0.8467759398755158 -30.37502212283269 1.6150041816500786 0.21525978778467642 -15.184946248069933 3.117322460909912 0.845927463107897 -30.358725855547203 3.11732797541566 0.8459089982403714 -30.359033411624736 1.6150071686919454 0.21526182885170442 -15.184961974075579 3.6081261352513097 -1.5362716334348319 5.960120885483724 17.419443616705074 4.4733589257442326 2.6110493757659303 6.3022174759592735 -0.16791147647165117 2.8947369157894456 -5.5485100322685375 -0.5369430105396281 -3.104480413731226 47.01860754175577 -4.769536627412843 37.449592452080786 109.08529696641222 1.265597910166347 -0.3012948277918184 -6.677876457603474 25.085312593538056 16.928885832778082 -1.1015608361493088 0.09812129159790804 10.179836297991786 -1.1015763079591674 0.09811366765487244 10.179833776987843 -0.5529956938310499 0.0245770440972252 5.090149230154522 -1.1015688388096003 0.0981144213780246 10.179839422574986 -1.101577374980531 0.0981214316703523 10.179825373641076 -0.5529888106009812 0.0245718647589651 5.090153482188058 -1.1015609428514463 0.09812132494849 10.179836297991786 -1.1015764146613038 0.09811367432498883 10.179833776987843 -0.5529956938310499 0.0245770440972252 5.090149230154522 -1.1015608361493088 0.09812127158755887 10.179837138326427 -1.1015764146613038 0.09811367432498883 10.179833776987843 -0.5529956938310499 0.0245770440972252 5.090149230154522 7.938066421998223 -1.8347614979918896 -5.154275311327555 -17.02774862702704 5.138028252013628 -2.139119535227323 -4.041887591596888 -0.9058092881109843 -2.4194067462353566 5.487528180681608 -14.377780377954988 -7.943622826079361 10.340605164255797 32.40530331544845 -0.8726592179058175 1.8243849812843043 -15.049832458678924 1.4130905030125454 -0.000004839614390173792 -6.859563743183351 0.000002373081821130863 -12.106727521830756 -39.766537930101734 -4.9351471683279255 -0.08446834785342558 59.129350986934554 -9.840258260800566 0.6693163236140232 0.1345352134818042 -17.407731629023633 -0.02549023789655522 -10.971683124841647 2.504774111960034
